{"title":"Inkaar 2013 DvDScr XviD Sample Included ~ rDX","uid":8047369,"size":728951375,"categoryP":"video","categoryS":"movies","magnet":"?xt=urn:btih:c8aca0d9881148de8b3ec307c22efabc6bea81b0&amp;dn=Inkaar+2013+DvDScr+XviD+Sample+Included+%7E+rDX&amp;tr=udp%3A%2F%2Ftracker.openbittorrent.com%3A80&amp;tr=udp%3A%2F%2Fopen.demonii.com%3A1337&amp;tr=udp%3A%2F%2Ftracker.coppersurfer.tk%3A6969&amp;tr=udp%3A%2F%2Fexodus.desync.com%3A6969","seeders":0,"leechers":1,"uploader":"basicssom","files":4,"time":1358782377,"description":"Inkaar 2013 Movies DvDScr XviD Sample Included ~ rDX\n\nScreen Shots :\n &lt;a href=&quot;\nhttp://myimghosting.serveftp.com/Inkaar.html&quot; rel=&quot;nofollow&quot; target=&quot;_NEW&quot;&gt;\nhttp://myimghosting.serveftp.com/Inkaar.html&lt;/a&gt;\n &lt;a href=&quot;\nhttp://myimghost.cwahi.net/Inkaar.html&quot; rel=&quot;nofollow&quot; target=&quot;_NEW&quot;&gt;\nhttp://myimghost.cwahi.net/Inkaar.html&lt;/a&gt;\n\n\nFormat                                   : AVI\nFormat/Info                              : Audio Video Interleave\nFile size                                : 677 MiB\nDuration                                 : 2h 3mn\nOverall bit rate                         : 765 Kbps\nWriting library                          : MPlayer\n\nVideo\nID                                       : 0\nFormat                                   : MPEG-4 Visual\nFormat profile                           : Advanced Simple@L5\nFormat settings, BVOP                    : 1\nFormat settings, QPel                    : No\nFormat settings, GMC                     : No warppoints\nFormat settings, Matrix                  : Default (H.263)\nCodec ID                                 : XVID\nCodec ID/Hint                            : XviD\nDuration                                 : 2h 3mn\nBit rate                                 : 679 Kbps\nWidth                                    : 640 pixels\nHeight                                   : 256 pixels\nDisplay aspect ratio                     : 2.500\nFrame rate                               : 24.975 fps\nColor space                              : YUV\nChroma subsampling                       : 4:2:0\nBit depth                                : 8 bits\nScan type                                : Progressive\nCompression mode                         : Lossy\nBits/(Pixel*Frame)                       : 0.166\nStream size                              : 601 MiB (89%)\nWriting library                          : XviD 1.2.1 (UTC 2008-12-04)\n\nAudio\nID                                       : 1\nFormat                                   : MPEG Audio\nFormat version                           : Version 1\nFormat profile                           : Layer 3\nMode                                     : Joint stereo\nMode extension                           : MS Stereo\nCodec ID                                 : 55\nCodec ID/Hint                            : MP3\nDuration                                 : 2h 3mn\nBit rate mode                            : Constant\nBit rate                                 : 80.0 Kbps\nChannel(s)                               : 2 channels\nSampling rate                            : 32.0 KHz\nCompression mode                         : Lossy\nStream size                              : 70.8 MiB (10%)\nAlignment                                : Aligned on interleaves\nInterleave, duration                     : 468 ms (11.69 video frames)\nInterleave, preload duration             : 936 ms","torrent":{"xt":"urn:btih:c8aca0d9881148de8b3ec307c22efabc6bea81b0","amp;dn":"Inkaar+2013+DvDScr+XviD+Sample+Included+%7E+rDX","amp;tr":["udp%3A%2F%2Ftracker.openbittorrent.com%3A80","udp%3A%2F%2Fopen.demonii.com%3A1337","udp%3A%2F%2Ftracker.coppersurfer.tk%3A6969","udp%3A%2F%2Fexodus.desync.com%3A6969"],"infoHash":"c8aca0d9881148de8b3ec307c22efabc6bea81b0","infoHashBuffer":{"type":"Buffer","data":[200,172,160,217,136,17,72,222,139,62,195,7,194,46,250,188,107,234,129,176]},"announce":[],"urlList":[]}}